<mxfile host="app.diagrams.net" modified="2023-09-22T08:55:54.180Z" agent="Mozilla/5.0 (Macintosh; Intel Mac OS X 10_15_7) AppleWebKit/537.36 (KHTML, like Gecko) Chrome/116.0.0.0 Safari/537.36" etag="N3w-I9Mz1YQTiRnauSOp" version="21.7.5" type="github">
  <diagram id="C5RBs43oDa-KdzZeNtuy" name="Page-1">
    <mxGraphModel dx="954" dy="544" grid="1" gridSize="10" guides="1" tooltips="1" connect="1" arrows="1" fold="1" page="1" pageScale="1" pageWidth="200000" pageHeight="200000" math="0" shadow="0">
      <root>
        <mxCell id="WIyWlLk6GJQsqaUBKTNV-0" />
        <mxCell id="WIyWlLk6GJQsqaUBKTNV-1" parent="WIyWlLk6GJQsqaUBKTNV-0" />
        <mxCell id="5qjLmSa4h2L6G2S_yBga-2" value="" style="edgeStyle=none;curved=1;rounded=0;orthogonalLoop=1;jettySize=auto;html=1;fontSize=12;startSize=8;endSize=8;" edge="1" parent="WIyWlLk6GJQsqaUBKTNV-1" source="5qjLmSa4h2L6G2S_yBga-0" target="5qjLmSa4h2L6G2S_yBga-1">
          <mxGeometry relative="1" as="geometry" />
        </mxCell>
        <mxCell id="5qjLmSa4h2L6G2S_yBga-0" value="开始" style="rounded=0;whiteSpace=wrap;html=1;fontSize=16;" vertex="1" parent="WIyWlLk6GJQsqaUBKTNV-1">
          <mxGeometry x="270" y="70" width="120" height="60" as="geometry" />
        </mxCell>
        <mxCell id="5qjLmSa4h2L6G2S_yBga-4" value="" style="edgeStyle=none;curved=1;rounded=0;orthogonalLoop=1;jettySize=auto;html=1;fontSize=12;startSize=8;endSize=8;" edge="1" parent="WIyWlLk6GJQsqaUBKTNV-1" source="5qjLmSa4h2L6G2S_yBga-1" target="5qjLmSa4h2L6G2S_yBga-3">
          <mxGeometry relative="1" as="geometry" />
        </mxCell>
        <mxCell id="5qjLmSa4h2L6G2S_yBga-1" value="platform请求&lt;br&gt;请求头标识" style="rounded=0;whiteSpace=wrap;html=1;fontSize=16;" vertex="1" parent="WIyWlLk6GJQsqaUBKTNV-1">
          <mxGeometry x="235" y="250" width="190" height="70" as="geometry" />
        </mxCell>
        <mxCell id="5qjLmSa4h2L6G2S_yBga-6" value="" style="edgeStyle=none;curved=1;rounded=0;orthogonalLoop=1;jettySize=auto;html=1;fontSize=12;startSize=8;endSize=8;" edge="1" parent="WIyWlLk6GJQsqaUBKTNV-1" source="5qjLmSa4h2L6G2S_yBga-3" target="5qjLmSa4h2L6G2S_yBga-5">
          <mxGeometry relative="1" as="geometry" />
        </mxCell>
        <mxCell id="5qjLmSa4h2L6G2S_yBga-3" value="拦截器：RequestRateLimitHandler&lt;br&gt;平台请求 return true" style="whiteSpace=wrap;html=1;fontSize=16;rounded=0;fillColor=#f8cecc;strokeColor=#b85450;" vertex="1" parent="WIyWlLk6GJQsqaUBKTNV-1">
          <mxGeometry x="230" y="450" width="200" height="60" as="geometry" />
        </mxCell>
        <mxCell id="5qjLmSa4h2L6G2S_yBga-8" value="" style="edgeStyle=none;curved=1;rounded=0;orthogonalLoop=1;jettySize=auto;html=1;fontSize=12;startSize=8;endSize=8;" edge="1" parent="WIyWlLk6GJQsqaUBKTNV-1" source="5qjLmSa4h2L6G2S_yBga-5" target="5qjLmSa4h2L6G2S_yBga-7">
          <mxGeometry relative="1" as="geometry" />
        </mxCell>
        <mxCell id="5qjLmSa4h2L6G2S_yBga-5" value="拦截器：&lt;br&gt;RequestV1RateLimitHandler&lt;br&gt;平台请求 return true" style="whiteSpace=wrap;html=1;fontSize=16;rounded=0;fillColor=#f8cecc;strokeColor=#b85450;" vertex="1" parent="WIyWlLk6GJQsqaUBKTNV-1">
          <mxGeometry x="225" y="630" width="210" height="90" as="geometry" />
        </mxCell>
        <mxCell id="5qjLmSa4h2L6G2S_yBga-10" value="" style="edgeStyle=none;curved=1;rounded=0;orthogonalLoop=1;jettySize=auto;html=1;fontSize=12;startSize=8;endSize=8;" edge="1" parent="WIyWlLk6GJQsqaUBKTNV-1" source="5qjLmSa4h2L6G2S_yBga-7" target="5qjLmSa4h2L6G2S_yBga-9">
          <mxGeometry relative="1" as="geometry" />
        </mxCell>
        <mxCell id="5qjLmSa4h2L6G2S_yBga-7" value="LanguageHandler" style="whiteSpace=wrap;html=1;fontSize=16;rounded=0;" vertex="1" parent="WIyWlLk6GJQsqaUBKTNV-1">
          <mxGeometry x="260" y="860" width="140" height="75" as="geometry" />
        </mxCell>
        <mxCell id="5qjLmSa4h2L6G2S_yBga-12" value="" style="edgeStyle=none;curved=1;rounded=0;orthogonalLoop=1;jettySize=auto;html=1;fontSize=12;startSize=8;endSize=8;" edge="1" parent="WIyWlLk6GJQsqaUBKTNV-1" source="5qjLmSa4h2L6G2S_yBga-9" target="5qjLmSa4h2L6G2S_yBga-11">
          <mxGeometry relative="1" as="geometry" />
        </mxCell>
        <mxCell id="5qjLmSa4h2L6G2S_yBga-9" value="CaptchaHandler" style="whiteSpace=wrap;html=1;fontSize=16;rounded=0;" vertex="1" parent="WIyWlLk6GJQsqaUBKTNV-1">
          <mxGeometry x="260" y="1062.5" width="140" height="67.5" as="geometry" />
        </mxCell>
        <mxCell id="5qjLmSa4h2L6G2S_yBga-14" value="" style="edgeStyle=none;curved=1;rounded=0;orthogonalLoop=1;jettySize=auto;html=1;fontSize=12;startSize=8;endSize=8;" edge="1" parent="WIyWlLk6GJQsqaUBKTNV-1" source="5qjLmSa4h2L6G2S_yBga-11" target="5qjLmSa4h2L6G2S_yBga-13">
          <mxGeometry relative="1" as="geometry" />
        </mxCell>
        <mxCell id="5qjLmSa4h2L6G2S_yBga-11" value="AppSecurityHandler" style="whiteSpace=wrap;html=1;fontSize=16;rounded=0;" vertex="1" parent="WIyWlLk6GJQsqaUBKTNV-1">
          <mxGeometry x="215" y="1253.75" width="230" height="86.25" as="geometry" />
        </mxCell>
        <mxCell id="5qjLmSa4h2L6G2S_yBga-16" value="" style="edgeStyle=none;curved=1;rounded=0;orthogonalLoop=1;jettySize=auto;html=1;fontSize=12;startSize=8;endSize=8;" edge="1" parent="WIyWlLk6GJQsqaUBKTNV-1" source="5qjLmSa4h2L6G2S_yBga-13" target="5qjLmSa4h2L6G2S_yBga-15">
          <mxGeometry relative="1" as="geometry" />
        </mxCell>
        <mxCell id="5qjLmSa4h2L6G2S_yBga-13" value="ApiSecurityHandler" style="whiteSpace=wrap;html=1;fontSize=16;rounded=0;" vertex="1" parent="WIyWlLk6GJQsqaUBKTNV-1">
          <mxGeometry x="240" y="1433.75" width="180" height="86.25" as="geometry" />
        </mxCell>
        <mxCell id="5qjLmSa4h2L6G2S_yBga-20" value="" style="edgeStyle=none;curved=1;rounded=0;orthogonalLoop=1;jettySize=auto;html=1;fontSize=12;startSize=8;endSize=8;" edge="1" parent="WIyWlLk6GJQsqaUBKTNV-1" source="5qjLmSa4h2L6G2S_yBga-15" target="5qjLmSa4h2L6G2S_yBga-19">
          <mxGeometry relative="1" as="geometry" />
        </mxCell>
        <mxCell id="5qjLmSa4h2L6G2S_yBga-15" value="ApiPlatformSecurityHandler" style="whiteSpace=wrap;html=1;fontSize=16;rounded=0;" vertex="1" parent="WIyWlLk6GJQsqaUBKTNV-1">
          <mxGeometry x="225" y="1613.75" width="205" height="106.25" as="geometry" />
        </mxCell>
        <mxCell id="5qjLmSa4h2L6G2S_yBga-22" value="" style="edgeStyle=none;curved=1;rounded=0;orthogonalLoop=1;jettySize=auto;html=1;fontSize=12;startSize=8;endSize=8;" edge="1" parent="WIyWlLk6GJQsqaUBKTNV-1" source="5qjLmSa4h2L6G2S_yBga-19" target="5qjLmSa4h2L6G2S_yBga-21">
          <mxGeometry relative="1" as="geometry" />
        </mxCell>
        <mxCell id="5qjLmSa4h2L6G2S_yBga-23" value="是" style="edgeLabel;html=1;align=center;verticalAlign=middle;resizable=0;points=[];fontSize=16;" vertex="1" connectable="0" parent="5qjLmSa4h2L6G2S_yBga-22">
          <mxGeometry x="0.07" y="2" relative="1" as="geometry">
            <mxPoint as="offset" />
          </mxGeometry>
        </mxCell>
        <mxCell id="5qjLmSa4h2L6G2S_yBga-30" value="" style="edgeStyle=none;curved=1;rounded=0;orthogonalLoop=1;jettySize=auto;html=1;fontSize=12;startSize=8;endSize=8;" edge="1" parent="WIyWlLk6GJQsqaUBKTNV-1" source="5qjLmSa4h2L6G2S_yBga-19" target="5qjLmSa4h2L6G2S_yBga-29">
          <mxGeometry relative="1" as="geometry" />
        </mxCell>
        <mxCell id="5qjLmSa4h2L6G2S_yBga-19" value="平台id是否空" style="rhombus;whiteSpace=wrap;html=1;fontSize=16;rounded=0;" vertex="1" parent="WIyWlLk6GJQsqaUBKTNV-1">
          <mxGeometry x="287.5" y="1853.125" width="80" height="80" as="geometry" />
        </mxCell>
        <mxCell id="5qjLmSa4h2L6G2S_yBga-98" value="" style="edgeStyle=none;curved=1;rounded=0;orthogonalLoop=1;jettySize=auto;html=1;fontSize=12;startSize=8;endSize=8;" edge="1" parent="WIyWlLk6GJQsqaUBKTNV-1" source="5qjLmSa4h2L6G2S_yBga-21" target="5qjLmSa4h2L6G2S_yBga-97">
          <mxGeometry relative="1" as="geometry" />
        </mxCell>
        <mxCell id="5qjLmSa4h2L6G2S_yBga-21" value="controller" style="whiteSpace=wrap;html=1;fontSize=16;rounded=0;" vertex="1" parent="WIyWlLk6GJQsqaUBKTNV-1">
          <mxGeometry x="467.5" y="1863.125" width="120" height="60" as="geometry" />
        </mxCell>
        <mxCell id="5qjLmSa4h2L6G2S_yBga-32" value="" style="edgeStyle=none;curved=1;rounded=0;orthogonalLoop=1;jettySize=auto;html=1;fontSize=12;startSize=8;endSize=8;" edge="1" parent="WIyWlLk6GJQsqaUBKTNV-1" source="5qjLmSa4h2L6G2S_yBga-29" target="5qjLmSa4h2L6G2S_yBga-31">
          <mxGeometry relative="1" as="geometry" />
        </mxCell>
        <mxCell id="5qjLmSa4h2L6G2S_yBga-33" value="否" style="edgeLabel;html=1;align=center;verticalAlign=middle;resizable=0;points=[];fontSize=16;" vertex="1" connectable="0" parent="5qjLmSa4h2L6G2S_yBga-32">
          <mxGeometry x="0.13" y="-1" relative="1" as="geometry">
            <mxPoint x="1" as="offset" />
          </mxGeometry>
        </mxCell>
        <mxCell id="5qjLmSa4h2L6G2S_yBga-35" value="" style="edgeStyle=none;curved=1;rounded=0;orthogonalLoop=1;jettySize=auto;html=1;fontSize=12;startSize=8;endSize=8;" edge="1" parent="WIyWlLk6GJQsqaUBKTNV-1" source="5qjLmSa4h2L6G2S_yBga-29" target="5qjLmSa4h2L6G2S_yBga-34">
          <mxGeometry relative="1" as="geometry" />
        </mxCell>
        <mxCell id="5qjLmSa4h2L6G2S_yBga-29" value="校验平台id是否合法" style="rhombus;whiteSpace=wrap;html=1;fontSize=16;rounded=0;" vertex="1" parent="WIyWlLk6GJQsqaUBKTNV-1">
          <mxGeometry x="287.5" y="2053.125" width="80" height="80" as="geometry" />
        </mxCell>
        <mxCell id="5qjLmSa4h2L6G2S_yBga-94" value="" style="edgeStyle=none;curved=1;rounded=0;orthogonalLoop=1;jettySize=auto;html=1;fontSize=12;startSize=8;endSize=8;" edge="1" parent="WIyWlLk6GJQsqaUBKTNV-1" source="5qjLmSa4h2L6G2S_yBga-31" target="5qjLmSa4h2L6G2S_yBga-93">
          <mxGeometry relative="1" as="geometry" />
        </mxCell>
        <mxCell id="5qjLmSa4h2L6G2S_yBga-31" value="错误提示" style="whiteSpace=wrap;html=1;fontSize=16;rounded=0;" vertex="1" parent="WIyWlLk6GJQsqaUBKTNV-1">
          <mxGeometry x="467.5" y="2063.125" width="120" height="60" as="geometry" />
        </mxCell>
        <mxCell id="5qjLmSa4h2L6G2S_yBga-37" value="" style="edgeStyle=none;curved=1;rounded=0;orthogonalLoop=1;jettySize=auto;html=1;fontSize=12;startSize=8;endSize=8;" edge="1" parent="WIyWlLk6GJQsqaUBKTNV-1" source="5qjLmSa4h2L6G2S_yBga-34" target="5qjLmSa4h2L6G2S_yBga-36">
          <mxGeometry relative="1" as="geometry" />
        </mxCell>
        <mxCell id="5qjLmSa4h2L6G2S_yBga-34" value="处理公有接口限频" style="whiteSpace=wrap;html=1;fontSize=16;rounded=0;" vertex="1" parent="WIyWlLk6GJQsqaUBKTNV-1">
          <mxGeometry x="267.5" y="2263.125" width="120" height="60" as="geometry" />
        </mxCell>
        <mxCell id="5qjLmSa4h2L6G2S_yBga-39" value="" style="edgeStyle=none;curved=1;rounded=0;orthogonalLoop=1;jettySize=auto;html=1;fontSize=12;startSize=8;endSize=8;" edge="1" parent="WIyWlLk6GJQsqaUBKTNV-1" source="5qjLmSa4h2L6G2S_yBga-36" target="5qjLmSa4h2L6G2S_yBga-38">
          <mxGeometry relative="1" as="geometry" />
        </mxCell>
        <mxCell id="5qjLmSa4h2L6G2S_yBga-42" value="" style="edgeStyle=none;curved=1;rounded=0;orthogonalLoop=1;jettySize=auto;html=1;fontSize=12;startSize=8;endSize=8;" edge="1" parent="WIyWlLk6GJQsqaUBKTNV-1" source="5qjLmSa4h2L6G2S_yBga-36" target="5qjLmSa4h2L6G2S_yBga-41">
          <mxGeometry relative="1" as="geometry" />
        </mxCell>
        <mxCell id="5qjLmSa4h2L6G2S_yBga-36" value="ip白名单是否维护" style="rhombus;whiteSpace=wrap;html=1;fontSize=16;rounded=0;" vertex="1" parent="WIyWlLk6GJQsqaUBKTNV-1">
          <mxGeometry x="287.5" y="2433.125" width="80" height="80" as="geometry" />
        </mxCell>
        <mxCell id="5qjLmSa4h2L6G2S_yBga-96" value="" style="edgeStyle=none;curved=1;rounded=0;orthogonalLoop=1;jettySize=auto;html=1;fontSize=12;startSize=8;endSize=8;" edge="1" parent="WIyWlLk6GJQsqaUBKTNV-1" source="5qjLmSa4h2L6G2S_yBga-38" target="5qjLmSa4h2L6G2S_yBga-95">
          <mxGeometry relative="1" as="geometry" />
        </mxCell>
        <mxCell id="5qjLmSa4h2L6G2S_yBga-38" value="controller" style="whiteSpace=wrap;html=1;fontSize=16;rounded=0;" vertex="1" parent="WIyWlLk6GJQsqaUBKTNV-1">
          <mxGeometry x="467.5" y="2443.125" width="120" height="60" as="geometry" />
        </mxCell>
        <mxCell id="5qjLmSa4h2L6G2S_yBga-40" value="否" style="text;html=1;align=center;verticalAlign=middle;resizable=0;points=[];autosize=1;strokeColor=none;fillColor=none;fontSize=16;" vertex="1" parent="WIyWlLk6GJQsqaUBKTNV-1">
          <mxGeometry x="380" y="2448" width="40" height="30" as="geometry" />
        </mxCell>
        <mxCell id="5qjLmSa4h2L6G2S_yBga-44" value="" style="edgeStyle=none;curved=1;rounded=0;orthogonalLoop=1;jettySize=auto;html=1;fontSize=12;startSize=8;endSize=8;" edge="1" parent="WIyWlLk6GJQsqaUBKTNV-1" source="5qjLmSa4h2L6G2S_yBga-41" target="5qjLmSa4h2L6G2S_yBga-43">
          <mxGeometry relative="1" as="geometry" />
        </mxCell>
        <mxCell id="5qjLmSa4h2L6G2S_yBga-47" value="" style="edgeStyle=none;curved=1;rounded=0;orthogonalLoop=1;jettySize=auto;html=1;fontSize=12;startSize=8;endSize=8;" edge="1" parent="WIyWlLk6GJQsqaUBKTNV-1" source="5qjLmSa4h2L6G2S_yBga-41" target="5qjLmSa4h2L6G2S_yBga-46">
          <mxGeometry relative="1" as="geometry" />
        </mxCell>
        <mxCell id="5qjLmSa4h2L6G2S_yBga-41" value="ip是否是白名单" style="rhombus;whiteSpace=wrap;html=1;fontSize=16;rounded=0;" vertex="1" parent="WIyWlLk6GJQsqaUBKTNV-1">
          <mxGeometry x="287.5" y="2633.125" width="80" height="80" as="geometry" />
        </mxCell>
        <mxCell id="5qjLmSa4h2L6G2S_yBga-100" value="" style="edgeStyle=none;curved=1;rounded=0;orthogonalLoop=1;jettySize=auto;html=1;fontSize=12;startSize=8;endSize=8;" edge="1" parent="WIyWlLk6GJQsqaUBKTNV-1" source="5qjLmSa4h2L6G2S_yBga-43" target="5qjLmSa4h2L6G2S_yBga-99">
          <mxGeometry relative="1" as="geometry" />
        </mxCell>
        <mxCell id="5qjLmSa4h2L6G2S_yBga-43" value="错误提示" style="whiteSpace=wrap;html=1;fontSize=16;rounded=0;" vertex="1" parent="WIyWlLk6GJQsqaUBKTNV-1">
          <mxGeometry x="467.5" y="2643.125" width="120" height="60" as="geometry" />
        </mxCell>
        <mxCell id="5qjLmSa4h2L6G2S_yBga-45" value="否" style="text;html=1;align=center;verticalAlign=middle;resizable=0;points=[];autosize=1;strokeColor=none;fillColor=none;fontSize=16;" vertex="1" parent="WIyWlLk6GJQsqaUBKTNV-1">
          <mxGeometry x="390" y="2648" width="40" height="30" as="geometry" />
        </mxCell>
        <mxCell id="5qjLmSa4h2L6G2S_yBga-49" value="" style="edgeStyle=none;curved=1;rounded=0;orthogonalLoop=1;jettySize=auto;html=1;fontSize=12;startSize=8;endSize=8;" edge="1" parent="WIyWlLk6GJQsqaUBKTNV-1" source="5qjLmSa4h2L6G2S_yBga-46" target="5qjLmSa4h2L6G2S_yBga-48">
          <mxGeometry relative="1" as="geometry" />
        </mxCell>
        <mxCell id="5qjLmSa4h2L6G2S_yBga-52" value="" style="edgeStyle=none;curved=1;rounded=0;orthogonalLoop=1;jettySize=auto;html=1;fontSize=12;startSize=8;endSize=8;" edge="1" parent="WIyWlLk6GJQsqaUBKTNV-1" source="5qjLmSa4h2L6G2S_yBga-46" target="5qjLmSa4h2L6G2S_yBga-51">
          <mxGeometry relative="1" as="geometry" />
        </mxCell>
        <mxCell id="5qjLmSa4h2L6G2S_yBga-46" value="限频是否配置" style="rhombus;whiteSpace=wrap;html=1;fontSize=16;rounded=0;" vertex="1" parent="WIyWlLk6GJQsqaUBKTNV-1">
          <mxGeometry x="287.5" y="2833.125" width="80" height="80" as="geometry" />
        </mxCell>
        <mxCell id="5qjLmSa4h2L6G2S_yBga-102" value="" style="edgeStyle=none;curved=1;rounded=0;orthogonalLoop=1;jettySize=auto;html=1;fontSize=12;startSize=8;endSize=8;" edge="1" parent="WIyWlLk6GJQsqaUBKTNV-1" source="5qjLmSa4h2L6G2S_yBga-48" target="5qjLmSa4h2L6G2S_yBga-101">
          <mxGeometry relative="1" as="geometry" />
        </mxCell>
        <mxCell id="5qjLmSa4h2L6G2S_yBga-48" value="controller" style="whiteSpace=wrap;html=1;fontSize=16;rounded=0;" vertex="1" parent="WIyWlLk6GJQsqaUBKTNV-1">
          <mxGeometry x="467.5" y="2843.125" width="120" height="60" as="geometry" />
        </mxCell>
        <mxCell id="5qjLmSa4h2L6G2S_yBga-50" value="否" style="text;html=1;align=center;verticalAlign=middle;resizable=0;points=[];autosize=1;strokeColor=none;fillColor=none;fontSize=16;" vertex="1" parent="WIyWlLk6GJQsqaUBKTNV-1">
          <mxGeometry x="390" y="2848" width="40" height="30" as="geometry" />
        </mxCell>
        <mxCell id="5qjLmSa4h2L6G2S_yBga-54" value="" style="edgeStyle=none;curved=1;rounded=0;orthogonalLoop=1;jettySize=auto;html=1;fontSize=12;startSize=8;endSize=8;" edge="1" parent="WIyWlLk6GJQsqaUBKTNV-1" source="5qjLmSa4h2L6G2S_yBga-51" target="5qjLmSa4h2L6G2S_yBga-53">
          <mxGeometry relative="1" as="geometry" />
        </mxCell>
        <mxCell id="5qjLmSa4h2L6G2S_yBga-57" value="" style="edgeStyle=none;curved=1;rounded=0;orthogonalLoop=1;jettySize=auto;html=1;fontSize=12;startSize=8;endSize=8;" edge="1" parent="WIyWlLk6GJQsqaUBKTNV-1" source="5qjLmSa4h2L6G2S_yBga-51">
          <mxGeometry relative="1" as="geometry">
            <mxPoint x="328" y="3420" as="targetPoint" />
          </mxGeometry>
        </mxCell>
        <mxCell id="5qjLmSa4h2L6G2S_yBga-51" value="luna脚本处理是否达到上限" style="rhombus;whiteSpace=wrap;html=1;fontSize=16;rounded=0;" vertex="1" parent="WIyWlLk6GJQsqaUBKTNV-1">
          <mxGeometry x="287.5" y="3033.125" width="80" height="80" as="geometry" />
        </mxCell>
        <mxCell id="5qjLmSa4h2L6G2S_yBga-89" value="" style="edgeStyle=none;curved=1;rounded=0;orthogonalLoop=1;jettySize=auto;html=1;fontSize=12;startSize=8;endSize=8;" edge="1" parent="WIyWlLk6GJQsqaUBKTNV-1" source="5qjLmSa4h2L6G2S_yBga-53" target="5qjLmSa4h2L6G2S_yBga-88">
          <mxGeometry relative="1" as="geometry" />
        </mxCell>
        <mxCell id="5qjLmSa4h2L6G2S_yBga-53" value="告警（每分钟发一次）" style="whiteSpace=wrap;html=1;fontSize=16;rounded=0;" vertex="1" parent="WIyWlLk6GJQsqaUBKTNV-1">
          <mxGeometry x="467.5" y="3043.125" width="120" height="60" as="geometry" />
        </mxCell>
        <mxCell id="5qjLmSa4h2L6G2S_yBga-55" value="是" style="text;html=1;align=center;verticalAlign=middle;resizable=0;points=[];autosize=1;strokeColor=none;fillColor=none;fontSize=16;" vertex="1" parent="WIyWlLk6GJQsqaUBKTNV-1">
          <mxGeometry x="400" y="3048" width="40" height="30" as="geometry" />
        </mxCell>
        <mxCell id="5qjLmSa4h2L6G2S_yBga-61" value="" style="edgeStyle=none;curved=1;rounded=0;orthogonalLoop=1;jettySize=auto;html=1;fontSize=12;startSize=8;endSize=8;" edge="1" parent="WIyWlLk6GJQsqaUBKTNV-1" source="5qjLmSa4h2L6G2S_yBga-58" target="5qjLmSa4h2L6G2S_yBga-60">
          <mxGeometry relative="1" as="geometry" />
        </mxCell>
        <mxCell id="5qjLmSa4h2L6G2S_yBga-58" value="处理私有接口限频" style="whiteSpace=wrap;html=1;fontSize=16;rounded=0;" vertex="1" parent="WIyWlLk6GJQsqaUBKTNV-1">
          <mxGeometry x="267.5" y="3423.125" width="120" height="60" as="geometry" />
        </mxCell>
        <mxCell id="5qjLmSa4h2L6G2S_yBga-63" value="" style="edgeStyle=none;curved=1;rounded=0;orthogonalLoop=1;jettySize=auto;html=1;fontSize=12;startSize=8;endSize=8;" edge="1" parent="WIyWlLk6GJQsqaUBKTNV-1" source="5qjLmSa4h2L6G2S_yBga-60" target="5qjLmSa4h2L6G2S_yBga-62">
          <mxGeometry relative="1" as="geometry" />
        </mxCell>
        <mxCell id="5qjLmSa4h2L6G2S_yBga-68" value="" style="edgeStyle=none;curved=1;rounded=0;orthogonalLoop=1;jettySize=auto;html=1;fontSize=12;startSize=8;endSize=8;" edge="1" parent="WIyWlLk6GJQsqaUBKTNV-1" source="5qjLmSa4h2L6G2S_yBga-60" target="5qjLmSa4h2L6G2S_yBga-67">
          <mxGeometry relative="1" as="geometry" />
        </mxCell>
        <mxCell id="5qjLmSa4h2L6G2S_yBga-60" value="验证签名是否通过" style="rhombus;whiteSpace=wrap;html=1;fontSize=16;rounded=0;" vertex="1" parent="WIyWlLk6GJQsqaUBKTNV-1">
          <mxGeometry x="287.5" y="3593.125" width="80" height="80" as="geometry" />
        </mxCell>
        <mxCell id="5qjLmSa4h2L6G2S_yBga-104" value="" style="edgeStyle=none;curved=1;rounded=0;orthogonalLoop=1;jettySize=auto;html=1;fontSize=12;startSize=8;endSize=8;" edge="1" parent="WIyWlLk6GJQsqaUBKTNV-1" source="5qjLmSa4h2L6G2S_yBga-62" target="5qjLmSa4h2L6G2S_yBga-103">
          <mxGeometry relative="1" as="geometry" />
        </mxCell>
        <mxCell id="5qjLmSa4h2L6G2S_yBga-62" value="错误提示" style="whiteSpace=wrap;html=1;fontSize=16;rounded=0;" vertex="1" parent="WIyWlLk6GJQsqaUBKTNV-1">
          <mxGeometry x="467.5" y="3603.125" width="120" height="60" as="geometry" />
        </mxCell>
        <mxCell id="5qjLmSa4h2L6G2S_yBga-64" value="否" style="text;html=1;align=center;verticalAlign=middle;resizable=0;points=[];autosize=1;strokeColor=none;fillColor=none;fontSize=16;" vertex="1" parent="WIyWlLk6GJQsqaUBKTNV-1">
          <mxGeometry x="390" y="3598" width="40" height="30" as="geometry" />
        </mxCell>
        <mxCell id="5qjLmSa4h2L6G2S_yBga-70" value="" style="edgeStyle=none;curved=1;rounded=0;orthogonalLoop=1;jettySize=auto;html=1;fontSize=12;startSize=8;endSize=8;" edge="1" parent="WIyWlLk6GJQsqaUBKTNV-1" source="5qjLmSa4h2L6G2S_yBga-67" target="5qjLmSa4h2L6G2S_yBga-69">
          <mxGeometry relative="1" as="geometry" />
        </mxCell>
        <mxCell id="5qjLmSa4h2L6G2S_yBga-72" value="否" style="edgeLabel;html=1;align=center;verticalAlign=middle;resizable=0;points=[];fontSize=16;" vertex="1" connectable="0" parent="5qjLmSa4h2L6G2S_yBga-70">
          <mxGeometry x="-0.03" y="2" relative="1" as="geometry">
            <mxPoint as="offset" />
          </mxGeometry>
        </mxCell>
        <mxCell id="5qjLmSa4h2L6G2S_yBga-74" value="" style="edgeStyle=none;curved=1;rounded=0;orthogonalLoop=1;jettySize=auto;html=1;fontSize=12;startSize=8;endSize=8;" edge="1" parent="WIyWlLk6GJQsqaUBKTNV-1" source="5qjLmSa4h2L6G2S_yBga-67" target="5qjLmSa4h2L6G2S_yBga-73">
          <mxGeometry relative="1" as="geometry" />
        </mxCell>
        <mxCell id="5qjLmSa4h2L6G2S_yBga-67" value="平台用户是否合法" style="rhombus;whiteSpace=wrap;html=1;fontSize=16;rounded=0;" vertex="1" parent="WIyWlLk6GJQsqaUBKTNV-1">
          <mxGeometry x="287.5" y="3793.125" width="80" height="80" as="geometry" />
        </mxCell>
        <mxCell id="5qjLmSa4h2L6G2S_yBga-106" value="" style="edgeStyle=none;curved=1;rounded=0;orthogonalLoop=1;jettySize=auto;html=1;fontSize=12;startSize=8;endSize=8;" edge="1" parent="WIyWlLk6GJQsqaUBKTNV-1" source="5qjLmSa4h2L6G2S_yBga-69" target="5qjLmSa4h2L6G2S_yBga-105">
          <mxGeometry relative="1" as="geometry" />
        </mxCell>
        <mxCell id="5qjLmSa4h2L6G2S_yBga-69" value="错误提示" style="whiteSpace=wrap;html=1;fontSize=16;rounded=0;" vertex="1" parent="WIyWlLk6GJQsqaUBKTNV-1">
          <mxGeometry x="467.5" y="3803.125" width="120" height="60" as="geometry" />
        </mxCell>
        <mxCell id="5qjLmSa4h2L6G2S_yBga-76" value="" style="edgeStyle=none;curved=1;rounded=0;orthogonalLoop=1;jettySize=auto;html=1;fontSize=12;startSize=8;endSize=8;" edge="1" parent="WIyWlLk6GJQsqaUBKTNV-1" source="5qjLmSa4h2L6G2S_yBga-73" target="5qjLmSa4h2L6G2S_yBga-75">
          <mxGeometry relative="1" as="geometry" />
        </mxCell>
        <mxCell id="5qjLmSa4h2L6G2S_yBga-79" value="" style="edgeStyle=none;curved=1;rounded=0;orthogonalLoop=1;jettySize=auto;html=1;fontSize=12;startSize=8;endSize=8;" edge="1" parent="WIyWlLk6GJQsqaUBKTNV-1" source="5qjLmSa4h2L6G2S_yBga-73" target="5qjLmSa4h2L6G2S_yBga-78">
          <mxGeometry relative="1" as="geometry" />
        </mxCell>
        <mxCell id="5qjLmSa4h2L6G2S_yBga-73" value="限频是否配置" style="rhombus;whiteSpace=wrap;html=1;fontSize=16;rounded=0;" vertex="1" parent="WIyWlLk6GJQsqaUBKTNV-1">
          <mxGeometry x="287.5" y="3993.125" width="80" height="80" as="geometry" />
        </mxCell>
        <mxCell id="5qjLmSa4h2L6G2S_yBga-108" value="" style="edgeStyle=none;curved=1;rounded=0;orthogonalLoop=1;jettySize=auto;html=1;fontSize=12;startSize=8;endSize=8;" edge="1" parent="WIyWlLk6GJQsqaUBKTNV-1" source="5qjLmSa4h2L6G2S_yBga-75" target="5qjLmSa4h2L6G2S_yBga-107">
          <mxGeometry relative="1" as="geometry" />
        </mxCell>
        <mxCell id="5qjLmSa4h2L6G2S_yBga-75" value="controller" style="whiteSpace=wrap;html=1;fontSize=16;rounded=0;" vertex="1" parent="WIyWlLk6GJQsqaUBKTNV-1">
          <mxGeometry x="467.5" y="4003.125" width="120" height="60" as="geometry" />
        </mxCell>
        <mxCell id="5qjLmSa4h2L6G2S_yBga-77" value="否" style="text;html=1;align=center;verticalAlign=middle;resizable=0;points=[];autosize=1;strokeColor=none;fillColor=none;fontSize=16;" vertex="1" parent="WIyWlLk6GJQsqaUBKTNV-1">
          <mxGeometry x="390" y="3998" width="40" height="30" as="geometry" />
        </mxCell>
        <mxCell id="5qjLmSa4h2L6G2S_yBga-81" value="" style="edgeStyle=none;curved=1;rounded=0;orthogonalLoop=1;jettySize=auto;html=1;fontSize=12;startSize=8;endSize=8;" edge="1" parent="WIyWlLk6GJQsqaUBKTNV-1" source="5qjLmSa4h2L6G2S_yBga-78" target="5qjLmSa4h2L6G2S_yBga-80">
          <mxGeometry relative="1" as="geometry" />
        </mxCell>
        <mxCell id="5qjLmSa4h2L6G2S_yBga-84" value="" style="edgeStyle=none;curved=1;rounded=0;orthogonalLoop=1;jettySize=auto;html=1;fontSize=12;startSize=8;endSize=8;" edge="1" parent="WIyWlLk6GJQsqaUBKTNV-1" source="5qjLmSa4h2L6G2S_yBga-78" target="5qjLmSa4h2L6G2S_yBga-83">
          <mxGeometry relative="1" as="geometry" />
        </mxCell>
        <mxCell id="5qjLmSa4h2L6G2S_yBga-78" value="是否达到频率上限" style="rhombus;whiteSpace=wrap;html=1;fontSize=16;rounded=0;" vertex="1" parent="WIyWlLk6GJQsqaUBKTNV-1">
          <mxGeometry x="287.5" y="4193.125" width="80" height="80" as="geometry" />
        </mxCell>
        <mxCell id="5qjLmSa4h2L6G2S_yBga-110" value="" style="edgeStyle=none;curved=1;rounded=0;orthogonalLoop=1;jettySize=auto;html=1;fontSize=12;startSize=8;endSize=8;" edge="1" parent="WIyWlLk6GJQsqaUBKTNV-1" source="5qjLmSa4h2L6G2S_yBga-80" target="5qjLmSa4h2L6G2S_yBga-109">
          <mxGeometry relative="1" as="geometry" />
        </mxCell>
        <mxCell id="5qjLmSa4h2L6G2S_yBga-80" value="controller" style="whiteSpace=wrap;html=1;fontSize=16;rounded=0;" vertex="1" parent="WIyWlLk6GJQsqaUBKTNV-1">
          <mxGeometry x="467.5" y="4203.125" width="120" height="60" as="geometry" />
        </mxCell>
        <mxCell id="5qjLmSa4h2L6G2S_yBga-82" value="否" style="text;html=1;align=center;verticalAlign=middle;resizable=0;points=[];autosize=1;strokeColor=none;fillColor=none;fontSize=16;" vertex="1" parent="WIyWlLk6GJQsqaUBKTNV-1">
          <mxGeometry x="390" y="4198" width="40" height="30" as="geometry" />
        </mxCell>
        <mxCell id="5qjLmSa4h2L6G2S_yBga-87" value="" style="edgeStyle=none;curved=1;rounded=0;orthogonalLoop=1;jettySize=auto;html=1;fontSize=12;startSize=8;endSize=8;" edge="1" parent="WIyWlLk6GJQsqaUBKTNV-1" source="5qjLmSa4h2L6G2S_yBga-83" target="5qjLmSa4h2L6G2S_yBga-86">
          <mxGeometry relative="1" as="geometry" />
        </mxCell>
        <mxCell id="5qjLmSa4h2L6G2S_yBga-83" value="告警" style="whiteSpace=wrap;html=1;fontSize=16;rounded=0;" vertex="1" parent="WIyWlLk6GJQsqaUBKTNV-1">
          <mxGeometry x="267.5" y="4403.125" width="120" height="60" as="geometry" />
        </mxCell>
        <mxCell id="5qjLmSa4h2L6G2S_yBga-85" value="是" style="text;html=1;align=center;verticalAlign=middle;resizable=0;points=[];autosize=1;strokeColor=none;fillColor=none;fontSize=16;" vertex="1" parent="WIyWlLk6GJQsqaUBKTNV-1">
          <mxGeometry x="310" y="4308" width="40" height="30" as="geometry" />
        </mxCell>
        <mxCell id="5qjLmSa4h2L6G2S_yBga-86" value="结束" style="whiteSpace=wrap;html=1;fontSize=16;rounded=0;" vertex="1" parent="WIyWlLk6GJQsqaUBKTNV-1">
          <mxGeometry x="267.5" y="4583.125" width="120" height="60" as="geometry" />
        </mxCell>
        <mxCell id="5qjLmSa4h2L6G2S_yBga-91" value="" style="edgeStyle=none;curved=1;rounded=0;orthogonalLoop=1;jettySize=auto;html=1;fontSize=12;startSize=8;endSize=8;" edge="1" parent="WIyWlLk6GJQsqaUBKTNV-1" source="5qjLmSa4h2L6G2S_yBga-88" target="5qjLmSa4h2L6G2S_yBga-90">
          <mxGeometry relative="1" as="geometry" />
        </mxCell>
        <mxCell id="5qjLmSa4h2L6G2S_yBga-88" value="错误提示" style="whiteSpace=wrap;html=1;fontSize=16;rounded=0;" vertex="1" parent="WIyWlLk6GJQsqaUBKTNV-1">
          <mxGeometry x="707.5" y="3043.125" width="120" height="60" as="geometry" />
        </mxCell>
        <mxCell id="5qjLmSa4h2L6G2S_yBga-90" value="结束" style="whiteSpace=wrap;html=1;fontSize=16;rounded=0;" vertex="1" parent="WIyWlLk6GJQsqaUBKTNV-1">
          <mxGeometry x="947.5" y="3043.125" width="120" height="60" as="geometry" />
        </mxCell>
        <mxCell id="5qjLmSa4h2L6G2S_yBga-92" value="否" style="text;html=1;align=center;verticalAlign=middle;resizable=0;points=[];autosize=1;strokeColor=none;fillColor=none;fontSize=16;" vertex="1" parent="WIyWlLk6GJQsqaUBKTNV-1">
          <mxGeometry x="320" y="3158" width="40" height="30" as="geometry" />
        </mxCell>
        <mxCell id="5qjLmSa4h2L6G2S_yBga-93" value="结束" style="whiteSpace=wrap;html=1;fontSize=16;rounded=0;" vertex="1" parent="WIyWlLk6GJQsqaUBKTNV-1">
          <mxGeometry x="707.5" y="2063.125" width="120" height="60" as="geometry" />
        </mxCell>
        <mxCell id="5qjLmSa4h2L6G2S_yBga-95" value="结束" style="whiteSpace=wrap;html=1;fontSize=16;rounded=0;" vertex="1" parent="WIyWlLk6GJQsqaUBKTNV-1">
          <mxGeometry x="707.5" y="2443.125" width="120" height="60" as="geometry" />
        </mxCell>
        <mxCell id="5qjLmSa4h2L6G2S_yBga-97" value="结束" style="whiteSpace=wrap;html=1;fontSize=16;rounded=0;" vertex="1" parent="WIyWlLk6GJQsqaUBKTNV-1">
          <mxGeometry x="707.5" y="1863.125" width="120" height="60" as="geometry" />
        </mxCell>
        <mxCell id="5qjLmSa4h2L6G2S_yBga-99" value="结束" style="whiteSpace=wrap;html=1;fontSize=16;rounded=0;" vertex="1" parent="WIyWlLk6GJQsqaUBKTNV-1">
          <mxGeometry x="707.5" y="2643.125" width="120" height="60" as="geometry" />
        </mxCell>
        <mxCell id="5qjLmSa4h2L6G2S_yBga-101" value="结束" style="whiteSpace=wrap;html=1;fontSize=16;rounded=0;" vertex="1" parent="WIyWlLk6GJQsqaUBKTNV-1">
          <mxGeometry x="707.5" y="2843.125" width="120" height="60" as="geometry" />
        </mxCell>
        <mxCell id="5qjLmSa4h2L6G2S_yBga-103" value="结束" style="whiteSpace=wrap;html=1;fontSize=16;rounded=0;" vertex="1" parent="WIyWlLk6GJQsqaUBKTNV-1">
          <mxGeometry x="707.5" y="3603.125" width="120" height="60" as="geometry" />
        </mxCell>
        <mxCell id="5qjLmSa4h2L6G2S_yBga-105" value="结束" style="whiteSpace=wrap;html=1;fontSize=16;rounded=0;" vertex="1" parent="WIyWlLk6GJQsqaUBKTNV-1">
          <mxGeometry x="707.5" y="3803.125" width="120" height="60" as="geometry" />
        </mxCell>
        <mxCell id="5qjLmSa4h2L6G2S_yBga-107" value="结束" style="whiteSpace=wrap;html=1;fontSize=16;rounded=0;" vertex="1" parent="WIyWlLk6GJQsqaUBKTNV-1">
          <mxGeometry x="707.5" y="4003.125" width="120" height="60" as="geometry" />
        </mxCell>
        <mxCell id="5qjLmSa4h2L6G2S_yBga-109" value="结束" style="whiteSpace=wrap;html=1;fontSize=16;rounded=0;" vertex="1" parent="WIyWlLk6GJQsqaUBKTNV-1">
          <mxGeometry x="707.5" y="4203.125" width="120" height="60" as="geometry" />
        </mxCell>
      </root>
    </mxGraphModel>
  </diagram>
</mxfile>
